# xmcd
#
# Track frame offsets: 
#        150
#        20235
#        31505
#        61585
#        74527
#        96625
#        114090
#        123045
#        142637
#        168517
#        195045
#
# Disc length: 2905 seconds
#
# Revision: 7
# Processed by: cddbd v1.5.2PL0 Copyright (c) Steve Scherf et al.
# Submitted via: ExactAudioCopy v0.99pb4
#
DISCID=7e0b570b,810b570b
DTITLE=Gary Moore - After Hours
DYEAR=1992
DGENRE=Blues
TTITLE0=Cold Day In Hell
TTITLE1=Don't You Lie To Me (I Get Evil)
TTITLE2=Story Of The Blues
TTITLE3=Since I Met You Baby
TTITLE4=Separate Ways
TTITLE5=Only Fool In Town
TTITLE6=Key To Love
TTITLE7=Jumpin' At Shadows
TTITLE8=The Blues Is Alright
TTITLE9=The Hurt Inside
TTITLE10=Nothing's The Same
EXTD=Produced by Gary Moore and Ian Taylor\nYEAR 1992\nSpecial guests:
EXTD=B.B. King("Since I Met You Baby") and \nAlbert Collins ("The Blu
EXTD=es Is Alright"]\n\nKeyboards: Tommy Eyre\nBass: Will Lee, Bob Dai
EXTD=sley, Johnny B. Gaydon\nDrums: Graham Walker, Anton Fig\nHorns: M
EXTD=artin Drover, Frank Mead, Nick Pentelow, \n          Nick Payn an
EXTD=d The Memphis Horns: Andrew Love,\n          Wayne Jackson\nBacki
EXTD=ng Vocals: Carol Kenyon, Linda Taylor\nOboe: Richard Morgan
EXTT0=
EXTT1=
EXTT2=
EXTT3=
EXTT4=
EXTT5=
EXTT6=
EXTT7=
EXTT8=
EXTT9=
EXTT10=
PLAYORDER=
